<svg class="svg-icon" style="width: 1em; height: 1em;vertical-align: middle;fill: currentColor;overflow: hidden;" viewBox="0 0 1024 1024" version="1.1" xmlns="http://www.w3.org/2000/svg"><path d="M921.6 1023.7H102.4C45.8 1023.7 0 976.3 0 917.8V547.3c0-29.2 22.9-52.9 51.2-52.9 28.3 0 51.2 23.7 51.2 52.9v317.6c0 29.2 22.9 52.9 51.2 52.9h716.8c28.3 0 51.2-23.7 51.2-52.9V547.3c0-29.2 22.9-52.9 51.2-52.9 28.3 0 51.2 23.7 51.2 52.9v370.6c0 58.4-45.8 105.8-102.4 105.8zM757.8 423.2H614.4v229.9c0 29.2-22.9 52.9-51.2 52.9H460.8c-28.3 0-51.2-23.7-51.2-52.9V423.2H266.2c-23.9 0-44.3-11.8-55-31.9-10.7-20.1-8.5-42.4 5.8-60.4L462.8 23.4C474.8 8.4 491.9 0.3 512 0.3c20 0 37.1 8 49.1 23.1L806.9 331c14.4 18 16.5 40.3 5.8 60.4-10.7 20-31 31.8-54.9 31.8z"  /></svg>